<svg height="511pt" viewBox="0 1 511 511.99899" width="511pt" xmlns="http://www.w3.org/2000/svg"><path d="m151.773438 7.605469h352.980468v280.304687h-352.980468zm0 0" fill="#f2f2f2"/><path d="m19.574219 192.929688h258.359375v180.382812h-258.359375zm0 0" fill="#4d5160"/><path d="m8.105469 130.445312 254.121093-46.660156 11.472657 62.492188-254.121094 46.660156zm0 0" fill="#4d5160"/><path d="m103.757812 177.472656-51.960937 9.539063 22.300781-68.6875 51.964844-9.542969zm0 0" fill="#f2f2f2"/><path d="m207.6875 158.390625-51.964844 9.542969 22.304688-68.691406 51.964844-9.539063zm0 0" fill="#f2f2f2"/><path d="m155.386719 321.800781c-12.765625-12.765625-12.765625-33.460937 0-46.226562 8.308593-8.308594 19.976562-11.203125 30.632812-8.695313 1.078125-6.488281 4.113281-12.714844 9.117188-17.722656 9.308593-9.308594 22.835937-11.820312 34.429687-7.550781 1.417969-2.5 3.1875-4.859375 5.320313-6.992188 11.734375-11.734375 30.171875-12.671875 42.988281-2.832031 12.816406-9.839844 31.253906-8.90625 42.988281 2.832031 2.132813 2.132813 3.902344 4.492188 5.320313 6.992188 11.59375-4.269531 25.121094-1.757813 34.429687 7.550781 5.007813 5.007812 8.039063 11.234375 9.117188 17.722656 10.65625-2.507812 22.324219.386719 30.632812 8.695313 12.765625 12.765625 12.765625 33.460937 0 46.226562l-122.488281 91.300781zm0 0" fill="#fce06d"/><path d="m248.824219 261.050781s-23.765625 6.597657-23.765625 23.765625c0 17.179688 11.878906 21.800782 11.878906 21.800782s-25.753906 13.207031-15.84375 38.960937c3.457031 8.980469-.476562 15.398437-7.074219 19.925781l-58.632812-43.703125c-12.769531-12.761719-12.769531-33.457031 0-46.226562 8.300781-8.300781 19.976562-11.199219 30.628906-8.695313 1.074219-6.488281 4.117187-12.710937 9.121094-17.71875 9.304687-9.3125 22.835937-11.816406 34.421875-7.550781 1.429687-2.503906 3.191406-4.863281 5.320312-6.992187 6.738282-6.742188 15.691406-9.921876 24.527344-9.527344-16.519531 0-20.160156 26.382812-10.582031 35.960937zm0 0" fill="#edb05f"/><path d="m400.363281 321.800781h-244.976562l26.539062 182.597657h191.898438zm0 0" fill="#ff669c"/><path d="m255.101562 504.398438h-37.246093l-16.601563-182.597657h47.554688zm0 0" fill="#f2f2f2"/><path d="m354.5 321.800781-16.601562 182.597657h-37.25l6.304687-182.597657zm0 0" fill="#f2f2f2"/><path d="m384.464844 147.757812-76.226563-44.011718v88.023437zm0 0" fill="#ff669c"/><path d="m504.757812 120.714844c4.199219 0 7.601563-3.402344 7.601563-7.601563v-105.511719c0-4.199218-3.402344-7.601562-7.601563-7.601562h-352.984374c-4.199219 0-7.601563 3.402344-7.601563 7.601562v90.128907l-137.441406 25.234375c-4.128907.757812-6.863281 4.71875-6.105469 8.847656l11.351562 61.820312v179.683594c0 4.199219 3.402344 7.601563 7.601563 7.601563h27.140625c4.199219 0 7.601562-3.402344 7.601562-7.601563 0-4.199218-3.402343-7.601562-7.601562-7.601562h-19.539062v-165.1875h243.148437v18.851562c-14.019531-4.480468-29.917969-1.042968-40.816406 9.859375-1.125 1.125-2.183594 2.316407-3.171875 3.570313-13.109375-2.671875-26.953125 1.347656-36.578125 10.972656-4.195313 4.195312-7.363281 9.171875-9.355469 14.652344-11.25-.558594-22.234375 3.601562-30.394531 11.765625-15.078125 15.078125-15.675781 39.222656-1.808594 55.03125l5.882813 40.484375h-76.960938c-4.195312 0-7.601562 3.402344-7.601562 7.601562 0 4.195313 3.40625 7.601563 7.601562 7.601563h79.171875l18.105469 124.574219c.542968 3.734374 3.746094 6.507812 7.523437 6.507812h191.898438c3.777343 0 6.980469-2.773438 7.523437-6.507812l26.199219-180.261719c7.382813-8.417969 10.660156-19.195313 9.839844-29.714844h87.371093c4.199219 0 7.601563-3.402344 7.601563-7.601563v-144.394531c0-4.195312-3.402344-7.601562-7.601563-7.601562-4.199218 0-7.601562 3.40625-7.601562 7.601562v136.792969h-84.054688c-1.867187-3.644531-4.316406-7.066406-7.363281-10.113281-8.164062-8.160157-19.140625-12.324219-30.394531-11.761719-1.992188-5.480469-5.160156-10.460938-9.355469-14.65625-9.625-9.621094-23.464843-13.640625-36.578125-10.972656-.988281-1.25-2.046875-2.445313-3.171875-3.570313-10.875-10.875-26.71875-14.320312-40.707031-9.890625v-26.421875c0-4.195312-3.40625-7.601562-7.601562-7.601562h-118.554688v-10.332031l115.683594-21.242188c4.128906-.757812 6.859375-4.71875 6.101562-8.847656l-11.472656-62.492188c-.363281-1.980468-1.5-3.738281-3.160156-4.882812-1.660156-1.144532-3.703125-1.582032-5.6875-1.21875l-101.464844 18.628906v-79.734375h337.78125v97.910156c0 4.199219 3.402344 7.601563 7.601562 7.601563zm-340.585937 208.6875h30.140625l15.21875 167.394531h-21.03125zm45.40625 0h31.882813l5.773437 167.394531h-22.4375zm52.867187 167.394531-5.773437-167.394531h42.40625l-5.773437 167.394531zm46.070313 0 5.773437-167.394531h31.882813l-15.21875 167.394531zm58.734375 0h-21.03125l15.21875-167.394531h30.136719zm-51.761719-256.808594c1.59375 1.589844 2.96875 3.398438 4.085938 5.367188 1.835937 3.238281 5.742187 4.667969 9.238281 3.382812 9.160156-3.375 19.53125-1.097656 26.425781 5.792969 3.714844 3.714844 6.132813 8.417969 6.996094 13.59375.34375 2.074219 1.535156 3.914062 3.285156 5.078125 1.75 1.167969 3.90625 1.554687 5.953125 1.074219 8.539063-2.007813 17.328125.484375 23.515625 6.671875 9.074219 9.070312 9.714844 23.414062 1.957031 33.25h-238.140624c-7.757813-9.835938-7.113282-24.179688 1.957031-33.25 6.1875-6.1875 14.976562-8.679688 23.515625-6.671875 2.050781.480468 4.203125.09375 5.953125-1.074219 1.753906-1.164063 2.941406-3.003906 3.285156-5.078125.863281-5.179688 3.28125-9.878906 6.996094-13.59375 6.894531-6.894531 17.265625-9.167969 26.429687-5.792969 3.492188 1.285157 7.398438-.148437 9.234375-3.382812 1.121094-1.96875 2.496094-3.777344 4.085938-5.367188 8.871093-8.871093 23.050781-9.808593 32.984375-2.179687 2.730468 2.097656 6.527344 2.097656 9.261718 0 9.933594-7.628906 24.109376-6.691406 32.980469 2.179687zm-96.664062-140.507812-16.96875 52.253906-7.292969 1.335937-27.671875 5.082032 16.964844-52.253906zm-68.929688 61.792969-34.96875 6.417968 16.96875-52.25 34.964844-6.421875zm-68.871093 12.644531-18.058594 3.316406 16.964844-52.253906 18.535156-3.402344 16.429687-3.015625-16.964843 52.25zm-18.089844-45.816407-16.96875 52.253907-20.285156 3.722656-8.730469-47.535156zm81.238281 57.222657h-41.085937l41.085937-7.542969zm120.664063-45.15625-45.980469 8.445312 16.964843-52.253906 20.289063-3.726563zm0 0"/><path d="m312.039062 97.164062c-2.351562-1.359374-5.25-1.359374-7.601562 0-2.351562 1.359376-3.800781 3.867188-3.800781 6.582032v88.023437c0 2.714844 1.449219 5.226563 3.800781 6.582031 1.175781.679688 2.488281 1.019532 3.800781 1.019532s2.625-.339844 3.800781-1.019532l76.226563-44.011718c2.351563-1.355469 3.800781-3.867188 3.800781-6.582032 0-2.714843-1.449218-5.226562-3.800781-6.582031zm3.800782 81.4375v-61.6875l53.421875 30.84375zm0 0"/><path d="m50.378906 251.476562h101.398438c4.195312 0 7.601562-3.40625 7.601562-7.601562 0-4.199219-3.40625-7.601562-7.601562-7.601562h-101.398438c-4.195312 0-7.601562 3.402343-7.601562 7.601562 0 4.195312 3.40625 7.601562 7.601562 7.601562zm0 0"/><path d="m50.378906 292.089844h64.390625c4.199219 0 7.601563-3.402344 7.601563-7.601563s-3.402344-7.601562-7.601563-7.601562h-64.390625c-4.195312 0-7.601562 3.402343-7.601562 7.601562s3.40625 7.601563 7.601562 7.601563zm0 0"/></svg>